<svg width="150" height="81" viewBox="0 0 150 81" fill="none" xmlns="http://www.w3.org/2000/svg">
<rect x="0.5" y="1.10608" width="15" height="15" rx="3.5" fill="#18181B" stroke="#27272A"/>
<rect x="20.5" y="1.10608" width="15" height="15" rx="3.5" fill="#1E3A8A" stroke="#1D4ED8"/>
<rect x="40.5" y="1.10608" width="15" height="15" rx="3.5" fill="#1E40AF" stroke="#2563EB"/>
<rect x="60.5" y="1.10608" width="15" height="15" rx="3.5" fill="#1D4ED8" stroke="#3B82F6"/>
<rect x="80.5" y="1.10608" width="15" height="15" rx="3.5" fill="#2563EB" stroke="#60A5FA"/>
<rect x="100.5" y="1.10608" width="15" height="15" rx="3.5" fill="#3B82F6" stroke="#93C5FD"/>
<path d="M17.4205 44.2121V50.3484H0.903409V44.2121H17.4205ZM4.36364 37.9393H12.6989V62.1609C12.6989 62.6723 12.7784 63.0871 12.9375 63.4052C13.108 63.7121 13.3523 63.9336 13.6705 64.07C13.9886 64.195 14.3693 64.2575 14.8125 64.2575C15.1307 64.2575 15.4659 64.2291 15.8182 64.1723C16.1818 64.1041 16.4545 64.0473 16.6364 64.0018L17.8977 70.0189C17.5 70.1325 16.9375 70.2746 16.2102 70.445C15.4943 70.6155 14.6364 70.7234 13.6364 70.7689C11.6818 70.8598 10.0057 70.6325 8.60795 70.0871C7.22159 69.5302 6.15909 68.6666 5.42045 67.4961C4.69318 66.3257 4.34091 64.8541 4.36364 63.0814V37.9393ZM29.054 70.8371C27.3835 70.8371 25.9006 70.5586 24.6051 70.0018C23.321 69.4336 22.304 68.5814 21.554 67.445C20.8153 66.2973 20.446 64.8598 20.446 63.1325C20.446 61.678 20.7017 60.4507 21.2131 59.4507C21.7244 58.4507 22.429 57.6382 23.3267 57.0132C24.2244 56.3882 25.2585 55.9166 26.429 55.5984C27.5994 55.2689 28.8494 55.0473 30.179 54.9336C31.6676 54.7973 32.8665 54.6552 33.7756 54.5075C34.6847 54.3484 35.3438 54.1268 35.7528 53.8427C36.1733 53.5473 36.3835 53.1325 36.3835 52.5984V52.5132C36.3835 51.6382 36.0824 50.9621 35.4801 50.4848C34.8778 50.0075 34.0653 49.7689 33.0426 49.7689C31.9403 49.7689 31.054 50.0075 30.3835 50.4848C29.7131 50.9621 29.2869 51.6211 29.1051 52.4621L21.4176 52.1893C21.6449 50.5984 22.2301 49.178 23.1733 47.928C24.1278 46.6666 25.4347 45.678 27.0938 44.9621C28.7642 44.2348 30.7699 43.8711 33.1108 43.8711C34.7813 43.8711 36.321 44.07 37.7301 44.4677C39.1392 44.8541 40.3665 45.4223 41.4119 46.1723C42.4574 46.9109 43.2642 47.82 43.8324 48.8996C44.4119 49.9791 44.7017 51.2121 44.7017 52.5984V70.3939H36.8608V66.7461H36.6562C36.1903 67.6325 35.5938 68.3825 34.8665 68.9961C34.1506 69.6098 33.304 70.07 32.3267 70.3768C31.3608 70.6836 30.2699 70.8371 29.054 70.8371ZM31.6278 65.3825C32.5256 65.3825 33.3324 65.2007 34.0483 64.8371C34.7756 64.4734 35.3551 63.9734 35.7869 63.3371C36.2188 62.6893 36.4347 61.9393 36.4347 61.0871V58.5984C36.196 58.7234 35.9063 58.8371 35.5653 58.9393C35.2358 59.0416 34.8722 59.1382 34.4744 59.2291C34.0767 59.32 33.6676 59.3996 33.2472 59.4677C32.8267 59.5359 32.4233 59.5984 32.0369 59.6552C31.2528 59.7802 30.5824 59.9734 30.0256 60.2348C29.4801 60.4961 29.0597 60.8371 28.7642 61.2575C28.4801 61.6666 28.3381 62.1552 28.3381 62.7234C28.3381 63.5871 28.6449 64.2461 29.2585 64.7007C29.8835 65.1552 30.6733 65.3825 31.6278 65.3825ZM49.7983 70.3939V44.2121H57.8949V48.9848H58.1676C58.6449 47.2575 59.4233 45.9734 60.5028 45.1325C61.5824 44.2802 62.8381 43.8541 64.2699 43.8541C64.6563 43.8541 65.054 43.8825 65.4631 43.9393C65.8722 43.9848 66.2528 44.0586 66.6051 44.1609V51.4052C66.2074 51.2689 65.6847 51.1609 65.0369 51.0814C64.4006 51.0018 63.8324 50.9621 63.3324 50.9621C62.3438 50.9621 61.4517 51.1836 60.6562 51.6268C59.8722 52.0586 59.2528 52.6666 58.7983 53.4507C58.3551 54.2234 58.1335 55.1325 58.1335 56.178V70.3939H49.7983ZM80.8466 80.7575C78.358 80.7575 76.2273 80.4109 74.4545 79.7177C72.6818 79.0246 71.2898 78.0757 70.2784 76.8711C69.267 75.6666 68.6591 74.303 68.4545 72.7802L76.3466 72.3371C76.4943 72.8711 76.767 73.3371 77.1648 73.7348C77.5739 74.1325 78.1023 74.4393 78.75 74.6552C79.4091 74.8711 80.1818 74.9791 81.0682 74.9791C82.4659 74.9791 83.6193 74.6382 84.5284 73.9564C85.4489 73.2859 85.9091 72.1098 85.9091 70.428V65.8257H85.6193C85.2898 66.6325 84.7898 67.3541 84.1193 67.9905C83.4489 68.6268 82.6136 69.1268 81.6136 69.4905C80.625 69.8541 79.4886 70.0359 78.2045 70.0359C76.2955 70.0359 74.5455 69.5927 72.9545 68.7064C71.375 67.8086 70.108 66.4223 69.1534 64.5473C68.2102 62.6609 67.7386 60.2348 67.7386 57.2689C67.7386 54.2121 68.2273 51.695 69.2045 49.7177C70.1818 47.7291 71.4602 46.2575 73.0398 45.303C74.6307 44.3484 76.3409 43.8711 78.1705 43.8711C79.5455 43.8711 80.7216 44.1098 81.6989 44.5871C82.6875 45.053 83.5 45.6552 84.1364 46.3939C84.7727 47.1325 85.2557 47.8996 85.5852 48.695H85.8239V44.2121H94.125V70.4961C94.125 72.7121 93.5682 74.5814 92.4545 76.1041C91.3409 77.6268 89.7841 78.7802 87.7841 79.5643C85.7841 80.3598 83.4716 80.7575 80.8466 80.7575ZM81.1023 63.9677C82.1136 63.9677 82.9773 63.7007 83.6932 63.1666C84.4091 62.6325 84.9602 61.8655 85.3466 60.8655C85.733 59.8655 85.9261 58.6666 85.9261 57.2689C85.9261 55.8484 85.733 54.6268 85.3466 53.6041C84.9716 52.57 84.4205 51.7746 83.6932 51.2177C82.9773 50.6609 82.1136 50.3825 81.1023 50.3825C80.0682 50.3825 79.1932 50.6666 78.4773 51.2348C77.7614 51.803 77.2159 52.6041 76.8409 53.6382C76.4773 54.6609 76.2955 55.8711 76.2955 57.2689C76.2955 58.6666 76.483 59.8655 76.858 60.8655C77.233 61.8655 77.7727 62.6325 78.4773 63.1666C79.1932 63.7007 80.0682 63.9677 81.1023 63.9677ZM111.678 70.8882C108.939 70.8882 106.575 70.3484 104.587 69.2689C102.609 68.178 101.087 66.6268 100.018 64.6155C98.9616 62.5927 98.4332 60.1893 98.4332 57.4052C98.4332 54.7007 98.9673 52.3371 100.036 50.3143C101.104 48.2802 102.609 46.7007 104.553 45.5757C106.496 44.4393 108.786 43.8711 111.422 43.8711C113.286 43.8711 114.99 44.1609 116.536 44.7405C118.081 45.32 119.416 46.178 120.541 47.3143C121.666 48.4507 122.541 49.8541 123.166 51.5246C123.791 53.1836 124.104 55.0871 124.104 57.2348V59.3143H101.348V54.4734H116.348C116.337 53.5871 116.126 52.7973 115.717 52.1041C115.308 51.4109 114.746 50.8711 114.03 50.4848C113.325 50.0871 112.513 49.8882 111.592 49.8882C110.661 49.8882 109.825 50.0984 109.087 50.5189C108.348 50.928 107.763 51.4905 107.331 52.2064C106.899 52.9109 106.672 53.7121 106.649 54.6098V59.5359C106.649 60.6041 106.859 61.5416 107.28 62.3484C107.7 63.1439 108.297 63.7632 109.07 64.2064C109.842 64.6496 110.763 64.8711 111.831 64.8711C112.57 64.8711 113.24 64.7689 113.842 64.5643C114.445 64.3598 114.962 64.0586 115.393 63.6609C115.825 63.2632 116.149 62.7746 116.365 62.195L124.018 62.4166C123.7 64.1325 123.001 65.6268 121.922 66.8996C120.854 68.1609 119.45 69.1439 117.712 69.8484C115.973 70.5416 113.962 70.8882 111.678 70.8882ZM143.139 44.2121V50.3484H126.622V44.2121H143.139ZM130.082 37.9393H138.418V62.1609C138.418 62.6723 138.497 63.0871 138.656 63.4052C138.827 63.7121 139.071 63.9336 139.389 64.07C139.707 64.195 140.088 64.2575 140.531 64.2575C140.849 64.2575 141.185 64.2291 141.537 64.1723C141.901 64.1041 142.173 64.0473 142.355 64.0018L143.616 70.0189C143.219 70.1325 142.656 70.2746 141.929 70.445C141.213 70.6155 140.355 70.7234 139.355 70.7689C137.401 70.8598 135.724 70.6325 134.327 70.0871C132.94 69.5302 131.878 68.6666 131.139 67.4961C130.412 66.3257 130.06 64.8541 130.082 63.0814V37.9393Z" fill="white"/>
</svg>
